<?xml version="1.0" encoding="utf-8"?>
<!-- Generator: Adobe Illustrator 16.0.0, SVG Export Plug-In . SVG Version: 6.00 Build 0)  -->
<!DOCTYPE svg PUBLIC "-//W3C//DTD SVG 1.1//EN" "http://www.w3.org/Graphics/SVG/1.1/DTD/svg11.dtd">
<svg version="1.1" id="ART" xmlns="http://www.w3.org/2000/svg" xmlns:xlink="http://www.w3.org/1999/xlink" x="0px" y="0px"
	 width="282px" height="95px" viewBox="0 0 282 95" enable-background="new 0 0 282 95" xml:space="preserve">
<g>
	<linearGradient id="SVGID_1_" gradientUnits="userSpaceOnUse" x1="0.1245" y1="36.127" x2="281.4287" y2="36.127">
		<stop  offset="0" style="stop-color:#D87C2E"/>
		<stop  offset="1" style="stop-color:#961E17"/>
	</linearGradient>
	<path fill="url(#SVGID_1_)" d="M160.103,51.517l-3.008-3.218c0,0-2.146,3.863-4.938,6.011c-2.792,2.146-4.295-1.934-4.295-1.934
		s-2.794,5.153-4.725,6.656c-1.934,1.504-4.51-1.719-4.51-1.719s-3.436,2.363-6.011,7.73c0,0-3.651-0.86-4.081-3.648
		c0,0-3.865,3.003-4.724,6.228c0,0-3.756-1.29-5.045-3.867c0,0-4.509,2.04-5.584,5.478c0,0-1.716-1.073-3.221-4.512
		c0,0-2.898,0.645-5.474,4.404c0,0-3.116-0.751-3.865-3.438c0,0-2.791,0.43-5.477,3.438c0,0-1.609-1.29-2.361-2.9
		c0,0-2.686,0.107-4.832,2.9c-3.973,0-87.826,0-87.826,0s15.461-6.871,37.793-9.449s57.118,1.719,106.939-32.212
		c49.816-33.926,84.175-26.625,103.07-13.312c0,0,31.495,20.041,33.501,47.243c0,1.555-0.537,1.662-3.759-0.267
		c-10.317-6.479-18.546-10.037-22.655-5.105l1.503,3.653c0,0,11.31-3.295,15.239,9.449c0,0-9.142-5.357-11.16-3.438
		c-1.504,1.433-3.225,3.438-7.09,3.438s-5.438,0-5.438,0s-18.999-0.188-21.255-0.188c0,0,0.035-4.186-0.07-10.09l-27.631,0.072
		c0,0,0.144,3.29,0.716,5.009c0.607,1.821,3.257,4.901,3.257,4.901c-1.067-0.004-11.766-0.009-16.786,0.008
		c-0.911-0.017-6.227,0.718-3.437-7.014c0,0-5.796-2.148-5.796-8.59c0,0-4.94,0.645-4.94-5.797c0,0-5.581,5.583-8.802,0"/>
	<path fill="#690F00" d="M251.63,48.5c0,0-8.535-0.26-5.911-4.579c1.337-2.208,2.623-2.414,2.623-2.414S244.954,44.721,251.63,48.5z
		"/>
	<path fill="#690F00" d="M250.986,38.052c0,0-13.072-2.042-7.869-7.507c2.656-2.793,4.691-2.83,4.691-2.83
		S241.726,31.507,250.986,38.052z"/>
	<path fill="#690F00" d="M208.096,19.963c0,0-22.097-0.318-13.545-8.394c4.366-4.123,7.794-4.539,7.794-4.539
		S192.243,13.078,208.096,19.963z"/>
	<path fill="#690F00" d="M231.513,51.41c0,0-9.925,2.666-8.666-3.408c0.646-3.102,2.038-3.805,2.038-3.805
		S222.295,49.225,231.513,51.41z"/>
	<path fill="#690F00" d="M185.428,44.346c0,0-8.293,3.433-8.907-2.404c-0.316-2.985,0.753-3.773,0.753-3.773
		S176.371,43.145,185.428,44.346z"/>
	<path fill="#690F00" d="M182.306,37.658c0,0-16.216,2.315-12.771-6.791c1.758-4.651,4.11-5.475,4.11-5.475
		S168.373,32.649,182.306,37.658z"/>
	<path fill="#690F00" d="M250.69,56.669c0,0-12.327-0.595-7.11-4.194c2.666-1.836,4.6-1.961,4.6-1.961S242.209,53.133,250.69,56.669
		z"/>
	<path fill="#690F00" d="M261.234,44.184c0,0-12.847-0.519-7.83-5.26c2.563-2.422,4.557-2.618,4.557-2.618
		S252.057,39.798,261.234,44.184z"/>
	<path fill="#690F00" d="M258.692,51.471c0,0-8.337-1.221-5.001-4.609c1.703-1.733,3.002-1.764,3.002-1.764
		S252.801,47.457,258.692,51.471z"/>
	<path fill="#690F00" d="M254.534,66.446c0,0-11.288,2.313-8.187-3.181c1.584-2.806,3.263-3.423,3.263-3.423
		S245.408,64.374,254.534,66.446z"/>
	<path fill="#690F00" d="M245.723,62.232c0,0-7.784,0.435-5.117-2.86c1.365-1.68,2.552-1.925,2.552-1.925
		S239.858,60.004,245.723,62.232z"/>
	<path fill="#690F00" d="M220.578,19.309c0,0-17.94-6.438-8.72-10.739c4.713-2.198,7.621-1.585,7.621-1.585
		S209.561,9.175,220.578,19.309z"/>
	<path fill="#690F00" d="M164.006,41.941c0,0-7.846-4.163-3.809-8.397c2.061-2.162,3.332-1.844,3.332-1.844
		S159.189,34.211,164.006,41.941z"/>
	<path fill="#690F00" d="M148.28,49.919c0,0-8.905-1.562-5.402-5.485c1.79-2.005,3.174-2.019,3.174-2.019
		S141.938,45.125,148.28,49.919z"/>
	<path fill="#690F00" d="M133.952,51.189c0,0-8.169-3.304-4.076-6.5c2.093-1.634,3.411-1.374,3.411-1.374
		S128.849,45.182,133.952,51.189z"/>
	<path fill="#690F00" d="M132.067,57.014c0,0-5.555-0.735-3.984-3.989c0.803-1.661,1.631-1.745,1.631-1.745
		S127.613,53.616,132.067,57.014z"/>
	<circle id="EYE_2_" cx="271.227" cy="48.289" r="3.543"/>
	<path fill="#690F00" d="M234.427,21.243c0,0-15.777-6.786-7.266-10.493c4.346-1.898,6.927-1.203,6.927-1.203
		S225.064,11.229,234.427,21.243z"/>
	<path fill="#972517" d="M166.468,70.636h-7.746V31.695c-0.779-0.733-1.968-1.105-3.534-1.105c-0.423,0-0.821,0.049-1.19,0.156
		l-0.09,39.89h-7.748V24.882h7.417c3.492,0,6.113,0.21,7.791,0.626c3.208,0.779,4.924,2.422,5.101,4.884V70.636z"/>
	<path fill="#972517" d="M197.247,70.743H189.5V60.76h-11.059V24.99h7.747v28.558h3.312V24.99h7.747V70.743z"/>
	<path fill="#972517" d="M239.17,70.743h-7.747V60.76h-11.057V24.99h7.746v28.558h3.311V24.99h7.747V70.743z"/>
	<path fill="#972517" d="M144.879,70.67h-7.745V35.796h7.745V70.67z"/>
	<path fill="#972517" d="M139.771,32.389c-2.682,0-4.864-2.185-4.864-4.866s2.182-4.861,4.864-4.861
		c2.684,0,4.866,2.179,4.866,4.861S142.455,32.389,139.771,32.389z"/>
	<path fill="#972517" d="M27.965,70.636h-7.749V24.99h7.749v0.063c0.545,0.004,1.307,0.026,2.35,0.062
		c1.17,0.04,2.066,0.058,2.657,0.058l0.105,0.018c2.305,0.784,3.672,2.301,4.066,4.521c1.24,6.913,1.764,15.256,1.558,24.795
		c-0.044,2.645-1.217,4.472-3.484,5.431l-7.251,3.124V70.636z M27.965,33.347v20.251l1.848-0.708
		c0.947-0.361,1.426-0.972,1.464-1.865c0.092-2.355,0.099-5.109,0.016-8.188c-0.121-2.587-0.559-5.345-1.298-8.196
		c-0.21-0.766-0.732-1.19-1.591-1.298L27.965,33.347z"/>
	<path fill="#972517" d="M60.696,70.636h-6.204l-0.486-3.308l-6.928,0.508l-0.313,2.8H38.97l0.033-0.359l4.299-45.394h10.672
		L60.696,70.636z M49.807,38.813l-2.162,22.431l5.293-0.466L49.807,38.813z"/>
	<path fill="#972517" d="M79.971,70.636h-7.748V31.695c-0.779-0.733-1.968-1.105-3.532-1.105c-0.423,0-0.823,0.049-1.19,0.156
		l-0.092,39.89h-7.747V24.882h7.416c3.493,0,6.114,0.21,7.793,0.626c3.205,0.779,4.921,2.422,5.099,4.884L79.971,70.636z"/>
	<path fill="#972517" d="M99.019,73.213h-7.424v-2.148h-6.446c-1.314,0-2.458-0.435-3.398-1.293c-0.949-0.863-1.43-1.911-1.43-3.116
		V29.614c0-1.206,0.483-2.252,1.435-3.121c0.946-0.854,2.09-1.289,3.404-1.289h9.02c1.311,0,2.458,0.43,3.402,1.285
		c0.953,0.864,1.437,1.907,1.437,3.107v5.071h-7.424V30.59h-3.85v35.091h3.85V53.872h7.424V73.213z"/>
	<path fill="#972517" d="M112.857,70.743h-9.018c-1.357,0-2.514-0.426-3.436-1.263c-0.933-0.842-1.406-1.902-1.406-3.151V29.251
		c0-1.29,0.473-2.368,1.406-3.214c0.924-0.837,2.079-1.262,3.436-1.262h9.018c1.314,0,2.458,0.434,3.402,1.293
		c0.954,0.865,1.437,1.938,1.437,3.183v37.078c0,1.203-0.483,2.256-1.437,3.124C115.316,70.309,114.173,70.743,112.857,70.743z
		 M106.422,65.25h3.849V30.267h-3.849V65.25z"/>
	<path fill="#972517" d="M136.053,70.636h-18.378V24.882h7.749v38.545h10.629V70.636z"/>
	<g id="TINY_WINCY_X_BCKG">
		<g>
			<g>
				<path fill="#972517" d="M199.731,28.432l6.033-1.67l3.588,10.698l3.53-10.694l6.032,1.666l-6.301,19.083l5.938,17.821
					l-6.069,1.723l-3.161-9.57l-3.16,9.57l-6.067-1.723l5.938-17.821L199.731,28.432z"/>
			</g>
		</g>
	</g>
	<g>
		<path d="M197.156,26.713l6.032-1.669l3.588,10.698l3.531-10.694l6.032,1.665L210.036,45.8l5.941,17.816l-6.07,1.724l-3.16-9.57
			l-3.161,9.57l-6.067-1.724l5.938-17.82L197.156,26.713z"/>
		<path fill="#D87C2E" d="M204.657,67.364l-9.252-2.629l6.312-18.939l-6.675-20.21l9.213-2.547l2.507,7.476l2.469-7.476l9.219,2.542
			l-6.672,20.216l6.312,18.939l-9.255,2.629l-2.088-6.327L204.657,67.364z M206.749,50.501l4.229,12.819l2.886-0.818L208.297,45.8
			l5.931-17.958l-2.846-0.784l-4.595,13.917l-4.669-13.921l-2.852,0.788l5.932,17.958l-5.566,16.702l2.882,0.818L206.749,50.501z"/>
	</g>
	<path d="M144.496,22.712h7.178c3.449,0,5.993,0.206,7.637,0.617c3.037,0.752,4.641,2.27,4.803,4.557v39.946h-7.178V29.014
		c-0.826-0.865-2.083-1.293-3.775-1.293c-0.538,0-1.031,0.071-1.486,0.223v39.888h-7.178V22.712z"/>
	<path fill="#D87C2E" d="M165.767,69.484h-10.481V29.802c-0.48-0.269-1.137-0.413-1.96-0.431v40.113h-10.481V21.059h8.83
		c3.617,0,6.246,0.22,8.04,0.667c4.722,1.169,5.896,3.931,6.047,6.043l0.006,0.116V69.484z M158.587,66.182h3.875V27.949
		c-0.049-0.649-0.258-2.203-3.547-3.017c-1.512-0.376-3.944-0.569-7.241-0.569h-5.525v41.819h3.876V26.75l1.133-0.376
		c0.619-0.202,1.293-0.31,2.003-0.31c2.15,0,3.822,0.609,4.969,1.804l0.458,0.479V66.182z"/>
	<path d="M187.731,22.765h7.179v45.125h-7.179v-9.959h-10.954V22.765h7.179v28.639h3.775V22.765z"/>
	<path fill="#D87C2E" d="M196.563,69.544H186.08v-9.961h-10.954v-38.47h10.481v28.639h0.473V21.113h10.483V69.544z M189.383,66.239
		h3.876V24.417h-3.876v28.639h-7.077V24.417h-3.877v31.862h10.954V66.239z"/>
	<path d="M229.654,22.765h7.18v45.125h-7.18v-9.959h-10.953V22.765h7.18v28.639h3.773V22.765z"/>
	<path fill="#D87C2E" d="M238.486,69.544h-10.483v-9.961H217.05v-38.47h10.483v28.639h0.47V21.113h10.483V69.544z M231.307,66.239
		h3.877V24.417h-3.877v28.639h-7.078V24.417h-3.876v31.862h10.954V66.239z"/>
	<g>
		<path d="M135.514,67.864V33.651h7.085v34.213H135.514z"/>
		<path fill="#D87C2E" d="M144.252,69.516h-10.387V32h10.387V69.516z M137.166,66.218h3.785V35.303h-3.785V66.218z"/>
	</g>
	<path id="EYE_3_" d="M142.656,26.336c0,1.957-1.586,3.546-3.545,3.546c-1.957,0-3.543-1.589-3.543-3.546
		c0-1.956,1.586-3.54,3.543-3.54C141.07,22.796,142.656,24.381,142.656,26.336z"/>
	<path fill="#D87C2E" d="M139.111,31.534c-2.862,0-5.194-2.332-5.194-5.197c0-2.864,2.332-5.192,5.194-5.192
		c2.865,0,5.197,2.328,5.197,5.192C144.308,29.202,141.976,31.534,139.111,31.534z M139.111,24.448
		c-1.041,0-1.891,0.846-1.891,1.889s0.85,1.894,1.891,1.894c1.043,0,1.893-0.851,1.893-1.894S140.154,24.448,139.111,24.448z"/>
	<path d="M18.538,22.765h0.309h-0.062c0.613,0,1.513,0,2.699,0c1.184,0,2.085,0,2.699,0h1.41v0.058c0.58,0,1.473,0.018,2.677,0.059
		c1.202,0.036,2.095,0.054,2.677,0.054c2.198,0.751,3.485,2.175,3.858,4.275c1.244,6.943,1.762,15.192,1.556,24.758
		c-0.04,2.513-1.134,4.24-3.279,5.174l-7.489,3.207v7.483h-7.055V22.765z M25.592,30.531v21.11l2.339-0.94
		c1.038-0.406,1.58-1.119,1.622-2.135c0.124-2.395,0.144-5.146,0.061-8.259c-0.125-2.618-0.563-5.376-1.318-8.259
		c-0.253-0.899-0.882-1.405-1.887-1.517H25.592z"/>
	<path fill="#D87C2E" d="M27.245,69.484H16.886V21.113h10.358v0.085c0.327,0.008,0.684,0.018,1.074,0.031
		c1.182,0.035,2.057,0.054,2.628,0.054h0.273l0.26,0.09c2.762,0.939,4.474,2.86,4.953,5.55c1.256,7.01,1.789,15.448,1.581,25.081
		c-0.052,3.152-1.529,5.457-4.271,6.653l-6.497,2.783V69.484z M20.189,66.182h3.751v-6.921l8.489-3.635
		c1.542-0.677,2.249-1.813,2.281-3.685C34.912,42.519,34.397,34.3,33.18,27.5c-0.255-1.419-1.059-2.35-2.527-2.914
		c-0.584-0.005-1.396-0.022-2.435-0.059c-1.182-0.036-2.057-0.053-2.626-0.053h-1.651v-0.059h-3.751V66.182z M23.941,54.084V28.88
		l2.652,0.009c1.663,0.188,2.862,1.177,3.292,2.712c0.788,3.012,1.249,5.904,1.379,8.625c0.085,3.178,0.062,5.999-0.061,8.426
		c-0.069,1.655-1.016,2.936-2.666,3.589L23.941,54.084z M27.245,34.811v14.387l0.071-0.027c0.568-0.224,0.578-0.444,0.586-0.671
		c0.123-2.355,0.143-5.095,0.063-8.147C27.88,38.597,27.639,36.735,27.245,34.811z"/>
	<path d="M41.609,22.712h10.087l6.623,45.12h-5.555l-0.497-3.375l-7.495,0.56l-0.309,2.815h-7.125L41.609,22.712z M51.348,58.612
		L47.742,33.62l-2.42,25.493L51.348,58.612z"/>
	<path fill="#D87C2E" d="M60.231,69.484h-8.895l-0.479-3.267l-4.592,0.345l-0.322,2.922H35.523l4.584-48.425h13.017L60.231,69.484z
		 M54.19,66.182h2.218l-6.137-41.819h-7.16l-3.958,41.819h3.83l0.298-2.709l10.396-0.778L54.19,66.182z M43.491,60.922l2.608-27.458
		l3.278-0.076l3.854,26.724L43.491,60.922z M48.08,47.532l-0.927,9.772l2.31-0.196L48.08,47.532z"/>
	<path d="M57.997,22.712h7.18c3.447,0,5.995,0.206,7.637,0.617c3.038,0.752,4.637,2.27,4.803,4.557v39.946h-7.18V29.014
		c-0.826-0.865-2.083-1.293-3.776-1.293c-0.535,0-1.032,0.071-1.484,0.223v39.888h-7.18V22.712z"/>
	<path fill="#D87C2E" d="M79.268,69.484H68.785V29.802c-0.479-0.269-1.133-0.413-1.956-0.431v40.113H56.345V21.059h8.832
		c3.617,0,6.245,0.22,8.038,0.667c4.725,1.169,5.897,3.931,6.049,6.043l0.004,0.116V69.484z M72.089,66.182h3.876V27.949
		c-0.049-0.649-0.26-2.203-3.547-3.017c-1.51-0.376-3.946-0.569-7.241-0.569h-5.528v41.819h3.876V26.75l1.132-0.376
		c0.62-0.202,1.296-0.31,2.003-0.31c2.153,0,3.823,0.609,4.969,1.804l0.459,0.479V66.182z"/>
	<path d="M83.174,22.993h9.035c1.238,0,2.299,0.402,3.188,1.208c0.886,0.806,1.329,1.773,1.329,2.896v4.785H89.98v-4.162h-4.579
		v35.726h4.579V51.688h6.746v18.679H89.98v-2.08h-6.806c-1.237,0-2.301-0.403-3.187-1.214c-0.889-0.807-1.332-1.769-1.332-2.897
		V27.098c0-1.124,0.443-2.091,1.332-2.896C80.874,23.396,81.937,22.993,83.174,22.993z"/>
	<path fill="#D87C2E" d="M98.378,72.02H88.331v-2.083h-5.157c-1.656,0-3.102-0.556-4.3-1.643c-1.222-1.11-1.871-2.534-1.871-4.119
		V27.098c0-1.581,0.649-3.008,1.873-4.119c1.196-1.087,2.642-1.638,4.298-1.638h9.035c1.654,0,3.101,0.551,4.297,1.638
		c1.225,1.115,1.872,2.538,1.872,4.119v6.432H88.331v-4.163h-1.278v32.427h1.278v-11.76h10.047V72.02z M91.632,68.715h3.444V53.339
		h-3.444v11.758h-7.88V26.063h7.88v4.167h3.444v-3.133c0-0.663-0.244-1.177-0.792-1.675c-0.584-0.533-1.245-0.778-2.075-0.778
		h-9.035c-0.831,0-1.491,0.246-2.077,0.778c-0.546,0.498-0.791,1.012-0.791,1.675v37.077c0,0.663,0.244,1.182,0.791,1.676
		c0.586,0.531,1.244,0.782,2.077,0.782h8.458V68.715z"/>
	<path d="M101.852,22.653h9.036c1.238,0,2.3,0.403,3.189,1.208c0.886,0.811,1.33,1.773,1.33,2.901V63.84
		c0,1.123-0.443,2.091-1.33,2.896c-0.889,0.806-1.951,1.207-3.189,1.207h-9.036c-1.278,0-2.353-0.394-3.219-1.181
		c-0.867-0.788-1.298-1.759-1.298-2.923V26.762c0-1.164,0.432-2.14,1.298-2.927C99.5,23.047,100.574,22.653,101.852,22.653z
		 M104.081,27.379v35.726h4.579V27.379H104.081z"/>
	<path fill="#D87C2E" d="M110.888,69.597h-9.036c-1.697,0-3.154-0.541-4.329-1.61c-1.205-1.094-1.84-2.53-1.84-4.146V26.762
		c0-1.621,0.636-3.053,1.84-4.149c1.175-1.07,2.632-1.612,4.329-1.612h9.036c1.656,0,3.102,0.551,4.299,1.638
		c1.225,1.115,1.871,2.543,1.871,4.123V63.84c0,1.58-0.646,3.004-1.871,4.118C113.989,69.046,112.543,69.597,110.888,69.597z
		 M101.852,24.305c-0.873,0-1.542,0.241-2.106,0.752c-0.526,0.479-0.759,1.002-0.759,1.705V63.84c0,0.698,0.233,1.227,0.759,1.701
		c0.564,0.516,1.233,0.752,2.106,0.752h9.036c0.833,0,1.493-0.246,2.077-0.778c0.54-0.488,0.79-1.021,0.79-1.675V26.762
		c0-0.663-0.244-1.182-0.79-1.679c-0.586-0.528-1.247-0.778-2.077-0.778H101.852z M110.312,64.758h-7.883v-39.03h7.883V64.758z
		 M105.733,61.454h1.276V29.032h-1.276V61.454z"/>
	<path d="M116.075,22.712h7.179v38.595h10.521v6.525h-17.7V22.712z"/>
	<path fill="#D87C2E" d="M135.427,69.484h-21.003V21.059h10.481v38.596h10.522V69.484z M117.725,66.182h14.398v-3.224h-10.521
		V24.363h-3.877V66.182z"/>
	<path fill="#FFFFFF" d="M21.109,90.908H18.21V77.081h-1.839v-2.667h6.598v2.667h-1.86V90.908z"/>
	<g>
		<path fill="#FFFFFF" d="M33.162,90.771h-2.901v-1.742l-1.441,0.1v1.643h-2.854V74.293h2.854V86.7l1.441-0.11V74.293h2.901V90.771z
			"/>
	</g>
	<g>
		<path fill="#FFFFFF" d="M42.646,90.752h-6.268V74.293h6.268v2.668h-3.367v7.708l1.925-0.14v2.444l-1.925,0.139v0.972h3.367V90.752
			z"/>
	</g>
	<g>
		<path fill="#FFFFFF" d="M60.369,90.771h-6.663V74.293h2.898v13.814h3.765V90.771z"/>
	</g>
	<g>
		<path fill="#FFFFFF" d="M70.186,90.752h-6.264V74.293h6.264v2.668H66.82v7.708l1.926-0.14v2.444l-1.926,0.139v0.972h3.365V90.752z
			"/>
	</g>
	<g>
		<path fill="#FFFFFF" d="M81.688,90.771h-2.324l-0.174-1.195l-2.393,0.179l-0.112,1.017h-2.878l1.56-16.478h3.9l0.023,0.143
			L81.688,90.771z M77.747,79.752l-0.718,7.553l1.786-0.152L77.747,79.752z"/>
	</g>
	<g>
		<path fill="#FFFFFF" d="M87.27,90.771h-2.855V74.293h6.242v2.668H87.27v7.708l1.947-0.14v2.444l-1.947,0.139V90.771z"/>
	</g>
	<g>
		<path fill="#FFFFFF" d="M97.828,91.213c-0.748,0-1.417-0.067-1.988-0.205c-0.965-0.221-1.455-0.614-1.455-1.169v-5.296h2.854
			v4.249c0.403,0.182,0.797,0.182,1.22-0.005v-6.626l-3.297-0.568c-0.515-0.161-0.776-0.491-0.776-0.966v-5.342
			c0-0.532,0.49-0.917,1.498-1.167c0.624-0.161,1.3-0.259,2.005-0.287h0.154c0.766,0,1.493,0.098,2.158,0.3
			c0.768,0.229,1.159,0.602,1.159,1.092v2.986h-2.9v-1.777c-0.439-0.215-0.851-0.201-1.22-0.004v2.823l3.25,0.542
			c0.361,0.062,0.592,0.172,0.708,0.34c0.11,0.157,0.164,0.395,0.164,0.728v9.06c0,0.511-0.508,0.867-1.549,1.088
			C99.182,91.146,98.515,91.213,97.828,91.213z"/>
	</g>
	<g>
		<path fill="#FFFFFF" d="M107.41,90.771h-2.854V74.314h2.854v0.023c0.199,0,0.465,0.008,0.796,0.018
			c0.43,0.013,0.748,0.018,0.953,0.018l0.054,0.009c0.844,0.291,1.346,0.85,1.49,1.661c0.444,2.479,0.634,5.47,0.56,8.889
			c-0.016,0.964-0.445,1.64-1.274,2.003l-2.58,1.1V90.771z M107.41,77.42v7.146l0.608-0.24c0.316-0.126,0.466-0.323,0.479-0.618
			c0.042-0.848,0.052-1.836,0.022-2.946c-0.044-0.917-0.201-1.902-0.467-2.918c-0.072-0.256-0.242-0.39-0.533-0.423H107.41z"/>
	</g>
	<g>
		<path fill="#FFFFFF" d="M119.095,92.175l-1.781-3.791v2.467h-2.856V74.373h2.856V74.4c0.568,0.021,1.148,0.035,1.727,0.035
			l0.052,0.009c0.859,0.288,1.37,0.851,1.515,1.679c0.444,2.386,0.632,5.372,0.56,8.868c-0.016,0.922-0.443,1.593-1.266,1.996
			l-0.105,0.04l2.007,3.831L119.095,92.175z M117.313,77.483v7.163l0.584-0.233c0.307-0.155,0.468-0.368,0.481-0.64
			c0.058-1.139,0.064-2.127,0.022-2.941c-0.045-0.858-0.202-1.844-0.468-2.932c-0.061-0.251-0.228-0.385-0.532-0.417H117.313z"/>
	</g>
	<g>
		<path fill="#FFFFFF" d="M129.465,90.931h-3.232c-0.483,0-0.904-0.16-1.253-0.474c-0.351-0.322-0.528-0.713-0.528-1.159V74.396
			h2.766v14.472h1.284V74.396h2.744v14.902c0,0.446-0.176,0.837-0.53,1.159C130.369,90.771,129.947,90.931,129.465,90.931z"/>
	</g>
	<g>
		<path fill="#FFFFFF" d="M141.725,90.771h-2.898V76.78c-0.264-0.24-0.663-0.36-1.186-0.36c-0.13,0-0.253,0.012-0.365,0.039v14.312
			h-2.9V74.293h2.735c1.24,0,2.173,0.075,2.773,0.227c1.157,0.287,1.78,0.888,1.842,1.779V90.771z"/>
	</g>
	<g>
		<path fill="#FFFFFF" d="M151.808,91.675h-2.743v-0.744h-2.271c-0.484,0-0.904-0.16-1.252-0.474
			c-0.354-0.322-0.53-0.713-0.53-1.159V76.029c0-0.448,0.177-0.837,0.53-1.159c0.348-0.314,0.768-0.475,1.252-0.475h3.231
			c0.482,0,0.903,0.16,1.253,0.475c0.353,0.322,0.53,0.711,0.53,1.159v1.876h-2.743V76.42h-1.31v12.447h1.31v-4.208h2.743V91.675z"
			/>
	</g>
	<g>
		<path fill="#FFFFFF" d="M166.907,92.175l-1.782-3.791v2.467h-2.855V74.373h2.855V74.4c0.569,0.021,1.148,0.035,1.729,0.035
			l0.051,0.009c0.862,0.288,1.37,0.851,1.516,1.679c0.443,2.386,0.634,5.372,0.559,8.868c-0.018,0.922-0.442,1.593-1.266,1.996
			l-0.104,0.04l2.007,3.831L166.907,92.175z M165.125,77.483v7.163l0.584-0.233c0.308-0.155,0.469-0.368,0.481-0.64
			c0.058-1.139,0.065-2.127,0.022-2.941c-0.045-0.858-0.201-1.844-0.468-2.932c-0.061-0.251-0.228-0.385-0.533-0.417H165.125z"/>
	</g>
	<g>
		<path fill="#FFFFFF" d="M178.55,90.752h-6.264V74.293h6.264v2.668h-3.366v7.708l1.927-0.14v2.444l-1.927,0.139v0.972h3.366V90.752
			z"/>
	</g>
	<g>
		<path fill="#FFFFFF" d="M185.632,91.213c-0.747,0-1.417-0.067-1.987-0.205c-0.966-0.221-1.455-0.614-1.455-1.169v-5.296h2.854
			v4.249c0.4,0.182,0.797,0.182,1.221-0.005v-6.626l-3.296-0.568c-0.517-0.161-0.778-0.491-0.778-0.966v-5.342
			c0-0.532,0.489-0.917,1.497-1.167c0.625-0.161,1.301-0.259,2.005-0.287h0.154c0.766,0,1.493,0.098,2.158,0.3
			c0.771,0.229,1.159,0.602,1.159,1.092v2.986h-2.899v-1.777c-0.44-0.21-0.849-0.201-1.221-0.004v2.823l3.25,0.542
			c0.359,0.062,0.591,0.172,0.708,0.34c0.108,0.157,0.162,0.395,0.162,0.728v9.06c0,0.511-0.508,0.867-1.549,1.088
			C186.985,91.146,186.318,91.213,185.632,91.213z"/>
	</g>
	<g>
		<path fill="#FFFFFF" d="M197.418,90.811h-3.234c-0.497,0-0.922-0.157-1.263-0.467c-0.345-0.312-0.519-0.706-0.519-1.167V75.909
			c0-0.462,0.174-0.855,0.519-1.169c0.343-0.31,0.769-0.466,1.263-0.466h3.234c0.483,0,0.904,0.161,1.25,0.475
			c0.352,0.321,0.531,0.712,0.531,1.16v13.268c0,0.447-0.18,0.836-0.531,1.158C198.322,90.648,197.901,90.811,197.418,90.811z
			 M195.147,88.751h1.309V76.294h-1.309V88.751z"/>
	</g>
	<g>
		<path fill="#FFFFFF" d="M207.341,90.931h-3.23c-0.484,0-0.905-0.16-1.251-0.474c-0.354-0.322-0.531-0.713-0.531-1.159V74.396
			h2.767v14.472h1.287V74.396h2.742v14.902c0,0.446-0.178,0.837-0.528,1.159C208.245,90.771,207.825,90.931,207.341,90.931z"/>
	</g>
	<g>
		<path fill="#FFFFFF" d="M216.823,92.175l-1.782-3.791v2.467h-2.854V74.373h2.854V74.4c0.568,0.021,1.15,0.035,1.728,0.035
			l0.055,0.009c0.859,0.288,1.37,0.851,1.513,1.679c0.445,2.386,0.634,5.372,0.559,8.868c-0.015,0.922-0.439,1.593-1.264,1.996
			l-0.107,0.04l2.009,3.831L216.823,92.175z M215.041,77.483v7.163l0.584-0.233c0.307-0.155,0.471-0.368,0.481-0.64
			c0.059-1.139,0.067-2.127,0.022-2.941c-0.045-0.858-0.201-1.844-0.468-2.932c-0.058-0.251-0.228-0.385-0.533-0.417H215.041z"/>
	</g>
	<g>
		<path fill="#FFFFFF" d="M227.194,90.931h-3.234c-0.481,0-0.904-0.16-1.25-0.474c-0.352-0.322-0.532-0.713-0.532-1.159V76.029
			c0-0.448,0.181-0.837,0.532-1.159c0.349-0.314,0.769-0.475,1.25-0.475h3.234c0.483,0,0.904,0.16,1.252,0.475
			c0.351,0.322,0.53,0.711,0.53,1.159v1.897h-2.744v-1.468h-1.308v12.408h1.308v-0.783h2.744v1.214c0,0.446-0.18,0.837-0.53,1.159
			C228.099,90.771,227.678,90.931,227.194,90.931z"/>
	</g>
	<g>
		<path fill="#FFFFFF" d="M238.392,90.752h-6.264V74.293h6.264v2.668h-3.366v7.708l1.928-0.14v2.444l-1.928,0.139v0.972h3.366
			V90.752z"/>
	</g>
</g>
</svg>
